<svg width="1200" height="900" viewBox="0 0 1200 900" fill="none" xmlns="http://www.w3.org/2000/svg">
  <rect width="1200" height="900" rx="48" fill="#F5F7FB"/>
  <rect x="92" y="96" width="1016" height="708" rx="40" fill="#FFFFFF" stroke="#DCE5F3" stroke-width="4"/>
  <rect x="152" y="184" width="238" height="156" rx="28" fill="#EAF1FF"/>
  <rect x="482" y="184" width="238" height="156" rx="28" fill="#EEF4FF"/>
  <rect x="812" y="184" width="238" height="156" rx="28" fill="#F3F6FC"/>
  <rect x="206" y="232" width="130" height="24" rx="12" fill="#91B5FF"/>
  <rect x="530" y="232" width="142" height="24" rx="12" fill="#9CCBFF"/>
  <rect x="860" y="232" width="146" height="24" rx="12" fill="#B5C7E8"/>
  <rect x="192" y="438" width="808" height="176" rx="36" fill="#F8FAFE" stroke="#DCE5F3" stroke-width="4"/>
  <path d="M286 522H904" stroke="#D0DCF2" stroke-width="18" stroke-linecap="round"/>
  <path d="M286 570H740" stroke="#E0E8F7" stroke-width="18" stroke-linecap="round"/>
  <path d="M390 340L510 438" stroke="#AAC6FF" stroke-width="14" stroke-linecap="round"/>
  <path d="M720 340L600 438" stroke="#AAC6FF" stroke-width="14" stroke-linecap="round"/>
  <path d="M930 340L810 438" stroke="#AAC6FF" stroke-width="14" stroke-linecap="round"/>
  <circle cx="390" cy="340" r="22" fill="#7EA7FF"/>
  <circle cx="720" cy="340" r="22" fill="#7ED7C1"/>
  <circle cx="930" cy="340" r="22" fill="#AAB9D8"/>
  <circle cx="600" cy="438" r="26" fill="#5A84EA"/>
</svg>
