<svg width="1600" height="900" viewBox="0 0 1600 900" fill="none" xmlns="http://www.w3.org/2000/svg">
  <rect width="1600" height="900" fill="#F5F7FB"/>
  <rect x="56" y="56" width="1488" height="788" rx="36" fill="white" stroke="#D7E0F0" stroke-width="4"/>
  <text x="110" y="150" fill="#2563EB" font-family="Inter, Arial, sans-serif" font-size="28" font-weight="700" letter-spacing="4">SLIDE 4 · EVIDENCE FROM THE REPORT</text>
  <text x="110" y="250" fill="#0F172A" font-family="Inter, Arial, sans-serif" font-size="64" font-weight="800">Evidence from the Report</text>
  <rect x="110" y="330" width="420" height="370" rx="28" fill="#F8FAFC" stroke="#CBD5E1"/>
  <text x="150" y="390" fill="#334155" font-family="Inter, Arial, sans-serif" font-size="24" font-weight="700">Stablecoin market cap</text>
  <path d="M160 620C230 610 280 560 340 520C390 485 455 455 500 420" stroke="#2563EB" stroke-width="12" stroke-linecap="round"/>
  <circle cx="500" cy="420" r="12" fill="#2563EB"/>
  <text x="310" y="470" fill="#1D4ED8" font-family="Inter, Arial, sans-serif" font-size="44" font-weight="800">300B+</text>
  <text x="310" y="510" fill="#64748B" font-family="Inter, Arial, sans-serif" font-size="22">USD by Nov 2025</text>
  <rect x="590" y="330" width="420" height="370" rx="28" fill="#F8FAFC" stroke="#CBD5E1"/>
  <text x="630" y="390" fill="#334155" font-family="Inter, Arial, sans-serif" font-size="24" font-weight="700">Institutional interest in DeFi</text>
  <rect x="680" y="600" width="38" height="50" rx="8" fill="#BFDBFE"/>
  <rect x="760" y="560" width="38" height="90" rx="8" fill="#93C5FD"/>
  <rect x="840" y="505" width="38" height="145" rx="8" fill="#60A5FA"/>
  <rect x="920" y="440" width="38" height="210" rx="8" fill="#2563EB"/>
  <text x="640" y="470" fill="#1D4ED8" font-family="Inter, Arial, sans-serif" font-size="36" font-weight="800">300+</text>
  <text x="640" y="505" fill="#64748B" font-family="Inter, Arial, sans-serif" font-size="22">industry professionals surveyed</text>
  <rect x="1070" y="330" width="370" height="370" rx="28" fill="#F8FAFC" stroke="#CBD5E1"/>
  <text x="1110" y="390" fill="#334155" font-family="Inter, Arial, sans-serif" font-size="24" font-weight="700">Hong Kong pilot case</text>
  <rect x="1115" y="455" width="280" height="70" rx="18" fill="#EFF6FF" stroke="#BFDBFE"/>
  <rect x="1115" y="555" width="280" height="70" rx="18" fill="#EEF2FF" stroke="#C7D2FE"/>
  <text x="1160" y="500" fill="#1D4ED8" font-family="Inter, Arial, sans-serif" font-size="26" font-weight="700">Digital money pilot</text>
  <text x="1150" y="600" fill="#4338CA" font-family="Inter, Arial, sans-serif" font-size="26" font-weight="700">Tokenized fund settlement</text>
  <path d="M1255 525V555" stroke="#94A3B8" stroke-width="7" stroke-linecap="round"/>
  <rect x="1260" y="750" width="180" height="70" rx="18" fill="#1D4ED8"/>
  <text x="1310" y="795" fill="white" font-family="Inter, Arial, sans-serif" font-size="28" font-weight="700">Slide 4</text>
</svg>